<svg id="Layer_1" data-name="Layer 1" xmlns="http://www.w3.org/2000/svg" viewBox="0 0 800 615.06"><defs><style>.cls-1{fill:#1577ba;}.cls-2{fill:#0995d3;}.cls-3{fill:#0c4366;}.cls-11,.cls-13,.cls-4,.cls-6,.cls-7,.cls-9{font-size:16.66px;}.cls-11,.cls-13,.cls-16,.cls-18,.cls-20,.cls-21,.cls-4,.cls-6,.cls-7,.cls-9{fill:#fff;}.cls-11,.cls-13,.cls-15,.cls-16,.cls-18,.cls-20,.cls-21,.cls-4,.cls-6,.cls-7,.cls-9{font-family:Montserrat-Medium, Montserrat;}.cls-4{letter-spacing:0.05em;}.cls-5{letter-spacing:0.1em;}.cls-6,.cls-8{letter-spacing:0.1em;}.cls-7{letter-spacing:0.11em;}.cls-9{letter-spacing:0.06em;}.cls-10{fill:none;stroke:#6d6e71;stroke-miterlimit:10;stroke-width:2px;}.cls-11{letter-spacing:0.1em;}.cls-12{letter-spacing:0.1em;}.cls-13{letter-spacing:0.09em;}.cls-14{font-size:25px;font-family:Montserrat-Bold, Montserrat;font-weight:700;letter-spacing:0.02em;}.cls-14,.cls-15{fill:#414042;}.cls-15{font-size:21px;letter-spacing:0.02em;}.cls-16,.cls-18,.cls-20,.cls-21{font-size:16px;}.cls-16{letter-spacing:-0.02em;}.cls-17{letter-spacing:-0.01em;}.cls-18{letter-spacing:-0.02em;}.cls-19,.cls-20{letter-spacing:-0.01em;}.cls-21{letter-spacing:-0.03em;}</style></defs><title>illustration2</title><path class="cls-1" d="M38.51,491.18v46.63c0,8.52,27.3,15.42,61,15.42s61-6.9,61-15.42V491.18Z"/><ellipse class="cls-1" cx="99.49" cy="491.18" rx="60.98" ry="15.41"/><path class="cls-2" d="M38.51,488.22v46.64c0,8.51,27.3,15.41,61,15.41s61-6.9,61-15.41V488.22Z"/><ellipse class="cls-3" cx="99.49" cy="488.22" rx="60.98" ry="15.41"/><path class="cls-1" d="M38.51,433.91v46.63c0,8.51,27.3,15.41,61,15.41s61-6.9,61-15.41V433.91Z"/><ellipse class="cls-1" cx="99.49" cy="433.91" rx="60.98" ry="15.41"/><path class="cls-2" d="M38.51,431.17V477.8c0,8.52,27.3,15.42,61,15.42s61-6.9,61-15.42V431.17Z"/><ellipse class="cls-3" cx="99.49" cy="431.17" rx="60.98" ry="15.41"/><path class="cls-1" d="M38.51,376.74v46.64c0,8.51,27.3,15.41,61,15.41s61-6.9,61-15.41V376.74Z"/><ellipse class="cls-1" cx="99.49" cy="376.74" rx="60.98" ry="15.41"/><path class="cls-2" d="M38.51,374v46.63c0,8.51,27.3,15.42,61,15.42s61-6.91,61-15.42V374Z"/><ellipse class="cls-3" cx="99.49" cy="374.01" rx="60.98" ry="15.41"/><path class="cls-1" d="M38.51,319.45v46.63c0,8.51,27.3,15.41,61,15.41s61-6.9,61-15.41V319.45Z"/><ellipse class="cls-1" cx="99.49" cy="319.45" rx="60.98" ry="15.41"/><path class="cls-2" d="M38.51,317v46.63c0,8.51,27.3,15.42,61,15.42s61-6.91,61-15.42V317Z"/><ellipse class="cls-3" cx="99.49" cy="316.98" rx="60.98" ry="15.41"/><text class="cls-4" transform="translate(88 532.33)">A<tspan class="cls-5" x="13.03" y="0">7</tspan></text><text class="cls-6" transform="translate(87.78 477.06)">A5</text><text class="cls-7" transform="translate(87.71 418.75)">A<tspan class="cls-8" x="14.03" y="0">3</tspan></text><text class="cls-9" transform="translate(89.84 361.76)">A<tspan class="cls-8" x="13.16" y="0">1</tspan></text><line class="cls-10" x1="99.49" y1="316.98" x2="99.49" y2="274.8"/><line class="cls-10" x1="98.5" y1="274.8" x2="269.08" y2="274.8"/><line class="cls-10" x1="540.44" y1="273.92" x2="711.2" y2="273.92"/><path class="cls-1" d="M207.07,491.18v46.63c0,8.52,27.3,15.42,61,15.42s61-6.9,61-15.42V491.18Z"/><ellipse class="cls-1" cx="268.05" cy="491.18" rx="60.98" ry="15.41"/><path class="cls-2" d="M207.07,488.22v46.64c0,8.51,27.3,15.41,61,15.41s61-6.9,61-15.41V488.22Z"/><ellipse class="cls-3" cx="268.05" cy="488.22" rx="60.98" ry="15.41"/><path class="cls-1" d="M207.07,433.91v46.63c0,8.51,27.3,15.41,61,15.41s61-6.9,61-15.41V433.91Z"/><ellipse class="cls-1" cx="268.05" cy="433.91" rx="60.98" ry="15.41"/><path class="cls-2" d="M207.07,431.17V477.8c0,8.52,27.3,15.42,61,15.42s61-6.9,61-15.42V431.17Z"/><ellipse class="cls-3" cx="268.05" cy="431.17" rx="60.98" ry="15.41"/><path class="cls-1" d="M207.07,376.74v46.64c0,8.51,27.3,15.41,61,15.41s61-6.9,61-15.41V376.74Z"/><ellipse class="cls-1" cx="268.05" cy="376.74" rx="60.98" ry="15.41"/><path class="cls-2" d="M207.07,374v46.63c0,8.51,27.3,15.42,61,15.42s61-6.91,61-15.42V374Z"/><ellipse class="cls-3" cx="268.05" cy="374.01" rx="60.98" ry="15.41"/><path class="cls-1" d="M207.07,319.45v46.63c0,8.51,27.3,15.41,61,15.41s61-6.9,61-15.41V319.45Z"/><ellipse class="cls-1" cx="268.05" cy="319.45" rx="60.98" ry="15.41"/><path class="cls-2" d="M207.07,317v46.63c0,8.51,27.3,15.42,61,15.42s61-6.91,61-15.42V317Z"/><ellipse class="cls-3" cx="268.05" cy="316.98" rx="60.98" ry="15.41"/><text class="cls-4" transform="translate(256.55 532.33)">A<tspan class="cls-5" x="13.03" y="0">7</tspan></text><text class="cls-7" transform="translate(256.27 418.75)">A<tspan class="cls-8" x="14.03" y="0">3</tspan></text><text class="cls-9" transform="translate(258.39 361.76)">A<tspan class="cls-8" x="13.16" y="0">1</tspan></text><line class="cls-10" x1="268.05" y1="316.98" x2="268.05" y2="274.8"/><line class="cls-10" x1="184.4" y1="216.78" x2="184.4" y2="174.61"/><line class="cls-10" x1="183.39" y1="174.61" x2="635.16" y2="174.61"/><line class="cls-10" x1="634.13" y1="216.78" x2="634.13" y2="174.61"/><path class="cls-1" d="M480.62,491.18v46.63c0,8.52,27.31,15.42,61,15.42s61-6.9,61-15.42V491.18Z"/><ellipse class="cls-1" cx="541.6" cy="491.18" rx="60.98" ry="15.41"/><path class="cls-2" d="M480.62,488.22v46.64c0,8.51,27.31,15.41,61,15.41s61-6.9,61-15.41V488.22Z"/><ellipse class="cls-3" cx="541.6" cy="488.22" rx="60.98" ry="15.41"/><path class="cls-1" d="M480.62,433.91v46.63c0,8.51,27.31,15.41,61,15.41s61-6.9,61-15.41V433.91Z"/><ellipse class="cls-1" cx="541.6" cy="433.91" rx="60.98" ry="15.41"/><path class="cls-2" d="M480.62,431.17V477.8c0,8.52,27.31,15.42,61,15.42s61-6.9,61-15.42V431.17Z"/><ellipse class="cls-3" cx="541.6" cy="431.17" rx="60.98" ry="15.41"/><path class="cls-1" d="M480.62,376.74v46.64c0,8.51,27.31,15.41,61,15.41s61-6.9,61-15.41V376.74Z"/><ellipse class="cls-1" cx="541.6" cy="376.74" rx="60.98" ry="15.41"/><path class="cls-2" d="M480.62,374v46.63c0,8.51,27.31,15.42,61,15.42s61-6.91,61-15.42V374Z"/><ellipse class="cls-3" cx="541.6" cy="374.01" rx="60.98" ry="15.41"/><path class="cls-1" d="M480.62,319.45v46.63c0,8.51,27.31,15.41,61,15.41s61-6.9,61-15.41V319.45Z"/><ellipse class="cls-1" cx="541.6" cy="319.45" rx="60.98" ry="15.41"/><path class="cls-2" d="M480.62,317v46.63c0,8.51,27.31,15.42,61,15.42s61-6.91,61-15.42V317Z"/><ellipse class="cls-3" cx="541.6" cy="316.98" rx="60.98" ry="15.41"/><text class="cls-11" transform="translate(529.35 532.33)">A<tspan class="cls-12" x="13.78" y="0">8</tspan></text><text class="cls-13" transform="translate(529.6 477.06)">A<tspan class="cls-12" x="13.73" y="0">6</tspan></text><text class="cls-6" transform="translate(529.9 361.76)">A2</text><line class="cls-10" x1="541.6" y1="316.98" x2="541.6" y2="273.92"/><path class="cls-1" d="M649.18,491.18v46.63c0,8.52,27.3,15.42,61,15.42s61-6.9,61-15.42V491.18Z"/><ellipse class="cls-1" cx="710.16" cy="491.18" rx="60.98" ry="15.41"/><path class="cls-2" d="M649.18,488.22v46.64c0,8.51,27.3,15.41,61,15.41s61-6.9,61-15.41V488.22Z"/><ellipse class="cls-3" cx="710.16" cy="488.22" rx="60.98" ry="15.41"/><path class="cls-1" d="M649.18,433.91v46.63c0,8.51,27.3,15.41,61,15.41s61-6.9,61-15.41V433.91Z"/><ellipse class="cls-1" cx="710.16" cy="433.91" rx="60.98" ry="15.41"/><path class="cls-2" d="M649.18,431.17V477.8c0,8.52,27.3,15.42,61,15.42s61-6.9,61-15.42V431.17Z"/><ellipse class="cls-3" cx="710.16" cy="431.17" rx="60.98" ry="15.41"/><path class="cls-1" d="M649.18,376.74v46.64c0,8.51,27.3,15.41,61,15.41s61-6.9,61-15.41V376.74Z"/><ellipse class="cls-1" cx="710.16" cy="376.74" rx="60.98" ry="15.41"/><path class="cls-2" d="M649.18,374v46.63c0,8.51,27.3,15.42,61,15.42s61-6.91,61-15.42V374Z"/><ellipse class="cls-3" cx="710.16" cy="374.01" rx="60.98" ry="15.41"/><path class="cls-1" d="M649.18,319.45v46.63c0,8.51,27.3,15.41,61,15.41s61-6.9,61-15.41V319.45Z"/><ellipse class="cls-1" cx="710.16" cy="319.45" rx="60.98" ry="15.41"/><path class="cls-2" d="M649.18,317v46.63c0,8.51,27.3,15.42,61,15.42s61-6.91,61-15.42V317Z"/><ellipse class="cls-3" cx="710.16" cy="316.98" rx="60.98" ry="15.41"/><line class="cls-10" x1="710.16" y1="316.98" x2="710.16" y2="274.8"/><text class="cls-14" transform="translate(140.58 251.67) scale(0.99 1)">RAID 1</text><text class="cls-14" transform="translate(362.66 153.18) scale(0.99 1)">RAID 0</text><text class="cls-14" transform="translate(357.49 74.59) scale(0.99 1)">RAID 10</text><text class="cls-14" transform="translate(583.01 251.67) scale(0.99 1)">RAID 1</text><text class="cls-15" transform="translate(68.15 590.2)">Disk 1</text><text class="cls-15" transform="translate(234.56 590.2)">Disk 2</text><text class="cls-15" transform="translate(503.48 590.2)">Disk 3</text><text class="cls-15" transform="translate(675.67 590.2)">Disk 4</text><text class="cls-16" transform="translate(701.27 533.8)">A<tspan class="cls-17" x="11.47" y="0">8</tspan></text><text class="cls-18" transform="translate(701.51 476.85)">A<tspan class="cls-19" x="11.42" y="0">6</tspan></text><text class="cls-20" transform="translate(256.68 476.85)">A5</text><text class="cls-21" transform="translate(701.15 419.49)">A<tspan class="cls-19" x="11.31" y="0">4</tspan></text><text class="cls-21" transform="translate(530.61 419.49)">A<tspan class="cls-19" x="11.31" y="0">4</tspan></text><text class="cls-20" transform="translate(701.79 363.15)">A2</text><line class="cls-10" x1="402.06" y1="126.35" x2="402.06" y2="84.18"/></svg>